<?xml version="1.0" encoding="utf-8"?>
<!-- Generator: Adobe Illustrator 21.0.0, SVG Export Plug-In . SVG Version: 6.00 Build 0)  -->
<svg version="1.1" id="Layer_1" xmlns="http://www.w3.org/2000/svg" xmlns:xlink="http://www.w3.org/1999/xlink" x="0px" y="0px"
	 viewBox="0 0 95.3 91" style="enable-background:new 0 0 95.3 91;" xml:space="preserve">
<style type="text/css">
	.st0{fill:#015B9A;}
</style>
<path class="st0" d="M81.7,25c-0.8-1.4-9.4-5.3-21.8-7.8c-5.1,5.4-5.1,7.6-5.2,8.5c-0.1,0.9,1.7,3.2,3.5,5.6
	c3.4,4.4,4.3,5.2,4.8,6.5c1,2.5-0.6,8.1-1.8,13.2c0,0-3-10.9-4.4-18c-0.1-0.7,0.1-1.1,0.1-1c-7.6-0.7-12.8-1.1-13.7,2.9
	c-3.5,0-5.1,1-5.5,1.6c-0.9,1.5,0.2,4.6,0.8,6.1c0.5-1.2,3.6-1,4.6-1c0.4,0,0.4,0.3,0.6,0.5l0,14.8h-9L27,77.6
	c3.6,1.7,7.4,3.1,9.8,3.1c2.4,0,8.2-3,9-3.1c0.8,0,6.7,3.1,9,3.1c2.3,0,6.1-1.2,9.8-3.1l-7.8-20.8c0,0-7.9,0-9,0c0-3.3,0-10.7,0-14
	c-0.2-0.9-0.6-1.2-0.9-1.3h4.6c-0.7-2.7-1.6-4.5-2.9-4.6c0.4-0.5,0.6-0.7,1.2-1.2h-3.5c0.4-1.8,4.9-1.2,6.9-1c2,10,5.8,23.3,6,23.6
	c0.2,0.2,3.4,1.4,3.8,1.5c1.9-4,4.7-15.7,4.8-18.6c2.3,0.8,1.4,3.9,0.9,7c-2.6,16.1-4.7,21-5.4,24c2.3-0.5,3.8-0.9,4-1.2
	c0.4-0.4,1.4-3.1,2.4-6.1c1.4-4.4,3.6-15.5,3.5-19.9c0-1.1-0.9-2.1-2.5-2.9c0,0,0.8-1.4,1.2-2.2c0.5-1.1,1-3.1,1-3.1
	c0.9,0.3,1.7,0.7,1.8,1.6c0.5,4.2,0.2,4.6-0.3,12.4c-0.2,2.5-1,7.4-1.9,12.6c-1.7,9.5-3.3,13.5-3.3,15c2.5-0.8,4.4-1.4,4.6-1.7
	c0.2-0.5,2.1-5,3.4-11.9c0.6-2.9,1-5.9,1.4-8.9c0.7-4,0.8-8.1,0.8-11.5c0-5,0.6-5-3.1-7c1.4-4.1,1.1-6.8,0.8-7.5
	c-0.6-1.5-1.4-1.5-4.7-1.2c1.2,1.1,0.8,3.3,0.5,4.6c-0.6-0.5-0.4-1.4-3.9-1.3c-0.5-5.7-1.6-6.3-1.7-6.5c-0.5-0.6-3.4-0.3-4.3,0
	c0.6,0.4,2,4.9,1.3,6.6c-0.4-0.5-5.3-6.1-5-7.1c0.2-0.6,0.5-1.3,2.2-3.3c5.9,1,15.9,4.8,16.4,5.8c0.6,1.3,1.2,2.8,1.6,5
	c0.5,3.3,1.5,11.1,1,23c-0.5,12.3-2.1,19.3-2.1,18.9c1.8-0.6,4.9-3.4,5.1-4c0.8-2,1.2-9.3,1.4-15.9c0.3-6.6-0.4-15-0.8-18.1
	C83.3,28.7,82.8,26.7,81.7,25z M36.7,76.3c-1.8,0-4.6-0.3-4.5-0.3L36.7,63l4.2,13.1C40.9,76.1,38.4,76.3,36.7,76.3z M59.3,76.1
	c0,0-2.8,0.3-4.5,0.3c-1.6,0-4.2-0.3-4.2-0.3L54.7,63L59.3,76.1z M47.7,65.9v-5h3.9l-5.9,16.3l-5.8-16.3h3.9v3.6c0,0,0,0.3,0.1,0.4
	c0.5,0.3,0.6,0.3,0.6,0.3L47.7,65.9z M48.2,39.4h-6.8c-0.5-1.6,0-2,1.4-2.1C45.6,37,48,37,48.2,39.4z M67.2,32.2
	c2.5-0.4,1.3,4,0.7,5.7c-0.9-2.1-1.6-3.3-3.1-5.3C65.7,32.4,66.3,32.4,67.2,32.2z"/>
<path class="st0" d="M23.4,68.4c1.2-1.2,5.4-5.5,6-7.8c0.8-2.8,1.4-9.4,1.4-10.9c0,0-4.1,2.8-6.3,5c-0.9,1-2.2,2.7-2.2,2.7
	c-0.4-2.4,0.1-5,1.2-6.6c1.4-2.2,6.5-6.5,7.1-8.3c1.1-2.8,0.9-5.3,1.8-8.4c-3.4,1.1-7.6,3.7-9.5,5.8c-0.3-3.3,0.8-5.7,3-7.4
	c3.2-2.4,7.4-3.8,10.2-4.6c2.4-0.7,6.1-1.5,8.1-2.4c3.5-1.7,6.9-6.5,7.7-9c-1.2,0-5.3-0.3-9.4,1.3c-1.5,0.6-2.2,1.9-2.9,3
	c-0.7,1.2-1.4,2.1-2,2.9c-1.7,2.5-3.7,3.7-6.3,4.4c0.1-0.2,1.7-1.2,2.9-3.7c1-2.1,2.2-6.3,2.2-6.6c-2.2,0.3-3.6,0.9-5.9,1.8
	c-2.5,1-3.2,2-3.7,2.9c-1.6,2.5-1.2,9.5-4.4,12.3c0.1-3.7,0.9-7.7-0.4-12.3c-6.8,2.6-8,5-7.5,7.9c0.6,3.8,4.9,5.6,6.8,8.7
	c0.5,0.9,0.8,2.2,0.8,2.4c0.1,0-1.3,1.9-0.9,5.5c0,0-1.4-2.6-2.6-4.3c-2-2.6-5.9-6.6-5.9-6.6c-0.8,10.3,0.5,12.4,1,13.3
	c1.3,2.2,6.2,5.6,7.2,7.7c0.5,1.1,0.6,1.5,0.6,1.5c0.2,0.4-1,1.7-0.8,3.5c0.1,0.6,0.2,1.4,0.4,2.4c0,0-1.4-2.1-3.4-4.4
	c-1.8-2.1-5.3-4.5-5.3-4.5c-0.2,1.2,0.4,6.9,0.5,7.8c0.5,2.9,0.6,5.6,3,8.1c2.1,2.1,8.9,4.9,10.3,5.4c0,0-0.3-1.3-0.9-3.2
	C24.7,71.6,23.4,68.4,23.4,68.4z"/>
<path class="st0" d="M253,22.9h1.9c1.3,0,2.5,0.3,3.7,1c0.8,0.5,1.4,1,1.6,1.7c0.3,0.9,0.5,2.7,0.5,5.4v34.8c0,3.2-0.3,5.3-1,6.1
	c-1,1.3-2.6,1.9-4.8,1.9H253v1.5h23.1v-1.5h-1.9c-1.3,0-2.5-0.3-3.6-1c-0.8-0.5-1.4-1-1.7-1.7c-0.3-0.9-0.5-2.7-0.5-5.4V31
	c0-3.2,0.3-5.3,1-6.1c1-1.3,2.6-1.9,4.8-1.9h1.9v-1.5H253V22.9z"/>
<path class="st0" d="M366.2,55.4c-1-2-2.4-3.7-4.3-5.1c-1.8-1.4-5.3-3.5-10.3-6.2c-6.2-3.3-10.1-6-11.7-7.9
	c-1.1-1.4-1.7-2.8-1.7-4.5c0-2.1,0.9-4.1,2.7-5.7c1.8-1.7,4.1-2.5,6.8-2.5c2.4,0,4.8,0.6,7.1,1.9c2.3,1.2,4,2.9,5.3,5
	c1.2,2.1,2.1,5,2.6,8.5h1.5V20.2h-1.5c-0.3,1.2-0.6,2.1-1.1,2.5c-0.4,0.4-1,0.6-1.7,0.6c-0.6,0-1.7-0.3-3.1-1
	c-3.2-1.4-6.2-2.1-9.1-2.1c-4.6,0-8.4,1.4-11.3,4.2c-3,2.8-4.5,6.1-4.5,10c0,2.2,0.5,4.3,1.5,6.1c1,1.9,2.5,3.6,4.4,5.1
	c2,1.5,5.2,3.6,9.8,6.2c4.6,2.6,7.4,4.3,8.5,5.1c1.5,1.2,2.7,2.4,3.4,3.8c0.7,1.4,1.1,2.7,1.1,4c0,2.4-1,4.4-2.9,6.2
	c-1.9,1.7-4.5,2.6-7.8,2.6c-2.9,0-5.5-0.6-7.9-1.9c-2.4-1.3-4.2-2.9-5.3-4.8c-1.2-1.9-2.1-4.8-2.8-8.7h-1.5v15.7
	c-2.2-0.5-3.6-1.1-5.1-2.1c-1.8-1.2-4-3.5-6.6-7.1l-11.1-15.5c4.5-1,7.9-2.7,10-5.2c2.2-2.4,3.2-5.3,3.2-8.6c0-3.1-0.9-5.8-2.8-8
	c-1.9-2.2-4.2-3.8-6.9-4.6c-2.7-0.8-6.9-1.3-12.7-1.3h-19.6v1.5h2c2,0,3.6,0.6,4.6,1.7c0.7,0.8,1.1,2.9,1.1,6.3v34.8
	c0,3.1-0.3,5-0.8,5.8c-1,1.5-2.6,2.2-4.9,2.2h-2v1.5h23.1v-1.5h-2.1c-2,0-3.5-0.6-4.5-1.7c-0.7-0.8-1.1-2.9-1.1-6.3V50.1
	c0.4,0,0.8,0,1.2,0.1c0.4,0,0.8,0,1.1,0c0.8,0,1.9,0,3.3-0.1L320,75.3l12.4,0l0,0h1.7c0.2-0.6,0.4-1,0.6-1.2
	c0.4-0.4,0.9-0.6,1.6-0.6c0.7,0,2.3,0.4,4.9,1.3c2.6,0.8,4.3,1.3,5.1,1.5c1.4,0.2,2.8,0.4,4.4,0.4c5,0,9.1-1.5,12.2-4.4
	c3.2-3,4.7-6.5,4.7-10.5C367.7,59.4,367.2,57.4,366.2,55.4z M298.4,47.7c-0.2,0-0.5,0-0.9,0c-0.4,0-0.8,0-1.3,0V25.2
	c2.6-0.5,4.7-0.8,6.2-0.8c3.5,0,6.3,1.1,8.4,3.2c2.1,2.1,3.2,4.8,3.2,8.2c0,3.4-1.3,6.3-3.9,8.5C307.4,46.6,303.5,47.7,298.4,47.7z"
	/>
<g>
	<path class="st0" d="M81.7,120.4c-0.8-1.4-9.4-5.3-21.8-7.8c-5.1,5.4-5.1,7.6-5.2,8.5c-0.1,0.9,1.7,3.2,3.5,5.6
		c3.4,4.4,4.3,5.2,4.8,6.5c1,2.5-0.6,8.1-1.8,13.2c0,0-3-10.9-4.4-18c-0.1-0.7,0.1-1.1,0.1-1c-7.6-0.7-12.8-1.1-13.7,2.9
		c-3.5,0-5.1,1-5.5,1.6c-0.9,1.5,0.2,4.6,0.8,6.1c0.5-1.2,3.6-1,4.6-1c0.4,0,0.4,0.3,0.6,0.5l0,14.8h-9L27,173.1
		c3.6,1.7,7.4,3.1,9.8,3.1c2.4,0,8.2-3,9-3.1c0.8,0,6.7,3.1,9,3.1c2.3,0,6.1-1.2,9.8-3.1l-7.8-20.8c0,0-7.9,0-9,0c0-3.3,0-10.7,0-14
		c-0.2-0.9-0.6-1.2-0.9-1.3h4.6c-0.7-2.7-1.6-4.5-2.9-4.6c0.4-0.5,0.6-0.7,1.2-1.2h-3.5c0.4-1.8,4.9-1.2,6.9-1c2,10,5.8,23.3,6,23.6
		c0.2,0.2,3.4,1.4,3.8,1.5c1.9-4,4.7-15.7,4.8-18.6c2.3,0.8,1.4,3.9,0.9,7c-2.6,16.1-4.7,21-5.4,24c2.3-0.5,3.8-0.9,4-1.2
		c0.4-0.4,1.4-3.1,2.4-6.1c1.4-4.4,3.6-15.5,3.5-19.9c0-1.1-0.9-2.1-2.5-2.9c0,0,0.8-1.4,1.2-2.2c0.5-1.1,1-3.1,1-3.1
		c0.9,0.3,1.7,0.7,1.8,1.6c0.5,4.2,0.2,4.6-0.3,12.4c-0.2,2.5-1,7.4-1.9,12.6c-1.7,9.5-3.3,13.5-3.3,15c2.5-0.8,4.4-1.4,4.6-1.7
		c0.2-0.5,2.1-5,3.4-11.9c0.6-2.9,1-5.9,1.4-8.9c0.7-4,0.8-8.1,0.8-11.5c0-5,0.6-5-3.1-7c1.4-4.1,1.1-6.8,0.8-7.5
		c-0.6-1.5-1.4-1.5-4.7-1.2c1.2,1.1,0.8,3.3,0.5,4.6c-0.6-0.5-0.4-1.4-3.9-1.3c-0.5-5.7-1.6-6.3-1.7-6.5c-0.5-0.6-3.4-0.3-4.3,0
		c0.6,0.4,2,4.9,1.3,6.6c-0.4-0.5-5.3-6.1-5-7.1c0.2-0.6,0.5-1.3,2.2-3.3c5.9,1,15.9,4.8,16.4,5.8c0.6,1.3,1.2,2.8,1.6,5
		c0.5,3.3,1.5,11.1,1,23c-0.5,12.3-2.1,19.3-2.1,18.9c1.8-0.6,4.9-3.4,5.1-4c0.8-2,1.2-9.3,1.4-15.9c0.3-6.6-0.4-15-0.8-18.1
		C83.3,124.1,82.8,122.2,81.7,120.4z M36.7,171.8c-1.8,0-4.6-0.3-4.5-0.3l4.5-13.1l4.2,13.1C40.9,171.5,38.4,171.8,36.7,171.8z
		 M59.3,171.5c0,0-2.8,0.3-4.5,0.3c-1.6,0-4.2-0.3-4.2-0.3l4.2-13.1L59.3,171.5z M47.7,161.3v-5h3.9l-5.9,16.3l-5.8-16.3h3.9v3.6
		c0,0,0,0.3,0.1,0.4c0.5,0.3,0.6,0.3,0.6,0.3L47.7,161.3z M48.2,134.9h-6.8c-0.5-1.6,0-2,1.4-2.1C45.6,132.5,48,132.5,48.2,134.9z
		 M67.2,127.7c2.5-0.4,1.3,4,0.7,5.7c-0.9-2.1-1.6-3.3-3.1-5.3C65.7,127.9,66.3,127.9,67.2,127.7z"/>
	<path class="st0" d="M23.4,163.9c1.2-1.2,5.4-5.5,6-7.8c0.8-2.8,1.4-9.4,1.4-10.9c0,0-4.1,2.8-6.3,5c-0.9,1-2.2,2.7-2.2,2.7
		c-0.4-2.4,0.1-5,1.2-6.6c1.4-2.2,6.5-6.5,7.1-8.3c1.1-2.8,0.9-5.3,1.8-8.4c-3.4,1.1-7.6,3.7-9.5,5.8c-0.3-3.3,0.8-5.7,3-7.4
		c3.2-2.4,7.4-3.8,10.2-4.6c2.4-0.7,6.1-1.5,8.1-2.4c3.5-1.7,6.9-6.5,7.7-9c-1.2,0-5.3-0.3-9.4,1.3c-1.5,0.6-2.2,1.9-2.9,3
		c-0.7,1.2-1.4,2.1-2,2.9c-1.7,2.5-3.7,3.7-6.3,4.4c0.1-0.2,1.7-1.2,2.9-3.7c1-2.1,2.2-6.3,2.2-6.6c-2.2,0.3-3.6,0.9-5.9,1.8
		c-2.5,1-3.2,2-3.7,2.9c-1.6,2.5-1.2,9.5-4.4,12.3c0.1-3.7,0.9-7.7-0.4-12.3c-6.8,2.6-8,5-7.5,7.9c0.6,3.8,4.9,5.6,6.8,8.7
		c0.5,0.9,0.8,2.2,0.8,2.4c0.1,0-1.3,1.9-0.9,5.5c0,0-1.4-2.6-2.6-4.3c-2-2.6-5.9-6.6-5.9-6.6c-0.8,10.3,0.5,12.4,1,13.3
		c1.3,2.2,6.2,5.6,7.2,7.7c0.5,1.1,0.6,1.5,0.6,1.5c0.2,0.4-1,1.7-0.8,3.5c0.1,0.6,0.2,1.4,0.4,2.4c0,0-1.4-2.1-3.4-4.4
		c-1.8-2.1-5.3-4.5-5.3-4.5c-0.2,1.2,0.4,6.9,0.5,7.8c0.5,2.9,0.6,5.6,3,8.1c2.1,2.1,8.9,4.9,10.3,5.4c0,0-0.3-1.3-0.9-3.2
		C24.7,167,23.4,163.9,23.4,163.9z"/>
	<path class="st0" d="M87.3,118.4h1.9c1.3,0,2.5,0.3,3.7,1c0.8,0.5,1.4,1,1.6,1.7c0.3,0.9,0.5,2.7,0.5,5.4v34.8c0,3.2-0.3,5.3-1,6.1
		c-1,1.3-2.6,1.9-4.8,1.9h-1.9v1.5h23.1v-1.5h-1.9c-1.3,0-2.5-0.3-3.6-1c-0.8-0.5-1.4-1-1.7-1.7c-0.3-0.9-0.5-2.7-0.5-5.4v-34.8
		c0-3.2,0.3-5.3,1-6.1c1-1.3,2.6-1.9,4.8-1.9h1.9v-1.5H87.3V118.4z"/>
	<path class="st0" d="M200.5,150.9c-1-2-2.4-3.7-4.3-5.1c-1.8-1.4-5.3-3.5-10.3-6.2c-6.2-3.3-10.1-6-11.7-7.9
		c-1.1-1.4-1.7-2.8-1.7-4.5c0-2.1,0.9-4.1,2.7-5.7c1.8-1.7,4.1-2.5,6.8-2.5c2.4,0,4.8,0.6,7.1,1.9c2.3,1.2,4,2.9,5.3,5
		c1.2,2.1,2.1,5,2.6,8.5h1.5v-18.6H197c-0.3,1.2-0.6,2.1-1.1,2.5c-0.4,0.4-1,0.6-1.7,0.6c-0.6,0-1.7-0.3-3.1-1
		c-3.2-1.4-6.2-2.1-9.1-2.1c-4.6,0-8.4,1.4-11.3,4.2c-3,2.8-4.5,6.1-4.5,10c0,2.2,0.5,4.3,1.5,6.1c1,1.9,2.5,3.6,4.4,5.1
		c2,1.5,5.2,3.6,9.8,6.2c4.6,2.6,7.4,4.3,8.5,5.1c1.5,1.2,2.7,2.4,3.4,3.8c0.7,1.4,1.1,2.7,1.1,4c0,2.4-1,4.4-2.9,6.2
		c-1.9,1.7-4.5,2.6-7.8,2.6c-2.9,0-5.5-0.6-7.9-1.9c-2.4-1.3-4.2-2.9-5.3-4.8c-1.2-1.9-2.1-4.8-2.8-8.7h-1.5v15.7
		c-2.2-0.5-3.6-1.1-5.1-2.1c-1.8-1.2-4-3.5-6.6-7.1l-11.1-15.5c4.5-1,7.9-2.7,10-5.2c2.2-2.4,3.2-5.3,3.2-8.6c0-3.1-0.9-5.8-2.8-8
		c-1.9-2.2-4.2-3.8-6.9-4.6c-2.7-0.8-6.9-1.3-12.7-1.3h-19.6v1.5h2c2,0,3.6,0.6,4.6,1.7c0.7,0.8,1.1,2.9,1.1,6.3v34.8
		c0,3.1-0.3,5-0.8,5.8c-1,1.5-2.6,2.2-4.9,2.2h-2v1.5h23.1v-1.5h-2.1c-2,0-3.5-0.6-4.5-1.7c-0.7-0.8-1.1-2.9-1.1-6.3v-15.7
		c0.4,0,0.8,0,1.2,0.1c0.4,0,0.8,0,1.1,0c0.8,0,1.9,0,3.3-0.1l18.2,25.2l12.4,0l0,0h1.7c0.2-0.6,0.4-1,0.6-1.2
		c0.4-0.4,0.9-0.6,1.6-0.6c0.7,0,2.3,0.4,4.9,1.3c2.6,0.8,4.3,1.3,5.1,1.5c1.4,0.2,2.8,0.4,4.4,0.4c5,0,9.1-1.5,12.2-4.4
		c3.2-3,4.7-6.5,4.7-10.5C202,154.9,201.5,152.8,200.5,150.9z M132.7,143.1c-0.2,0-0.5,0-0.9,0c-0.4,0-0.8,0-1.3,0v-22.4
		c2.6-0.5,4.7-0.8,6.2-0.8c3.5,0,6.3,1.1,8.4,3.2c2.1,2.1,3.2,4.8,3.2,8.2c0,3.4-1.3,6.3-3.9,8.5C141.7,142,137.9,143.1,132.7,143.1
		z"/>
</g>
</svg>
